<svg width="11" height="10" viewBox="0 0 11 10" fill="none" xmlns="http://www.w3.org/2000/svg">
<path d="M5.34781 0.520752C6.46987 0.520752 7.38568 1.40451 7.4371 2.51387L7.43938 2.61232V3.05233C7.43938 3.24767 7.28102 3.40603 7.08567 3.40603C6.90661 3.40603 6.75862 3.27296 6.7352 3.10032L6.73197 3.05233V2.61232C6.73197 1.87525 6.15566 1.27261 5.42913 1.23051L5.34781 1.22816H3.04874C2.31206 1.22816 1.7095 1.80452 1.6674 2.531L1.66505 2.61232V7.86128C1.66505 8.5983 2.2413 9.20098 2.96746 9.24309L3.04874 9.24544H5.35253C6.08698 9.24544 6.68766 8.67121 6.72963 7.94748L6.73197 7.86647V7.42174C6.73197 7.2264 6.89033 7.06804 7.08567 7.06804C7.26474 7.06804 7.41273 7.20111 7.43615 7.37375L7.43938 7.42174V7.86647C7.43938 8.98475 6.55898 9.8977 5.45362 9.95044L5.35253 9.95285H3.04874C1.92705 9.95285 1.01133 9.06901 0.959918 7.95973L0.957642 7.86128V2.61232C0.957642 1.49035 1.84131 0.57445 2.95032 0.523029L3.04874 0.520752H5.34781ZM9.11832 3.57716L9.15807 3.61132L10.5389 4.98604C10.5514 4.99838 10.5623 5.01094 10.5723 5.02422L10.5389 4.98604C10.5533 5.00039 10.5662 5.01566 10.5777 5.03167C10.5857 5.04287 10.5932 5.05471 10.5999 5.06699C10.6011 5.06938 10.6024 5.07172 10.6036 5.07408C10.6095 5.08539 10.6149 5.09711 10.6195 5.10916C10.6214 5.11444 10.6233 5.11977 10.6251 5.12514C10.6286 5.13506 10.6314 5.14527 10.6339 5.15565C10.635 5.1612 10.6362 5.16671 10.6372 5.17223C10.6391 5.18187 10.6405 5.19182 10.6415 5.20188C10.6421 5.20889 10.6425 5.21583 10.6428 5.22277C10.6431 5.22743 10.6432 5.23208 10.6432 5.23675L10.6428 5.25011C10.6426 5.25737 10.6421 5.26462 10.6413 5.27185L10.6432 5.23675C10.6432 5.25885 10.6412 5.28046 10.6373 5.30144C10.6362 5.30667 10.635 5.3122 10.6337 5.3177C10.6314 5.32863 10.6283 5.33922 10.6248 5.3496C10.623 5.35443 10.6213 5.35931 10.6194 5.36415C10.615 5.37589 10.6099 5.38725 10.6043 5.39827C10.6029 5.40076 10.6014 5.40355 10.5999 5.40633C10.5836 5.43619 10.5633 5.46319 10.5396 5.48686L10.539 5.48732L9.15811 6.86252C9.0197 7.00037 8.79575 6.99991 8.6579 6.8615C8.53259 6.73567 8.52157 6.53914 8.6246 6.40089L8.65893 6.36129L9.43191 5.59003L4.61093 5.59046C4.41558 5.59046 4.25722 5.4321 4.25722 5.23675C4.25722 5.05769 4.39029 4.9097 4.56293 4.88628L4.61093 4.88305L9.43285 4.88262L8.65897 4.11264C8.53312 3.98735 8.52127 3.79087 8.6237 3.65217L8.65786 3.61243C8.78315 3.48658 8.97963 3.47472 9.11832 3.57716Z" fill="#EA7C69"/>
</svg>
