<svg width="12" height="12" viewBox="0 0 12 12" fill="none" xmlns="http://www.w3.org/2000/svg">
<g clip-path="url(#clip0_502_6511)">
<path d="M4.95485 3.4941C4.9962 3.57627 5.02107 3.66544 5.02821 3.7584L5.21145 6.3468C5.2139 6.38226 5.2307 6.41531 5.25814 6.43862C5.27871 6.4561 5.30399 6.46703 5.33225 6.47021L5.36144 6.47076L7.99024 6.3124C8.20372 6.29985 8.41301 6.37414 8.56858 6.51769C8.72414 6.66124 8.81214 6.86128 8.811 7.09271C8.69409 8.79638 7.4427 10.2206 5.73831 10.5898C4.03393 10.959 2.28479 10.1847 1.44614 8.69318C1.22188 8.30868 1.07072 7.88812 1.00093 7.46231L0.978593 7.30245C0.959198 7.18273 0.94877 7.06185 0.947266 6.94574L0.948734 6.83144C0.953584 5.05269 2.20247 3.51458 3.95992 3.09971L4.08053 3.07318L4.14541 3.06245C4.48524 3.01599 4.8196 3.19413 4.95485 3.4941ZM4.25625 3.73817L4.21651 3.74269L4.10876 3.76703C2.70883 4.10444 1.70476 5.30964 1.64899 6.7295L1.64656 6.84508C1.64321 6.93301 1.64642 7.02103 1.65703 7.11468L1.67013 7.21043C1.71698 7.6133 1.84706 8.00265 2.05513 8.35947C2.74706 9.58994 4.18563 10.2268 5.58738 9.92315C6.98914 9.61952 8.01834 8.44816 8.11369 7.06924C8.11369 7.04847 8.10499 7.02861 8.08955 7.01436C8.07925 7.00486 8.06658 6.99841 8.05316 6.99553L8.03264 6.99395L5.40819 7.15203C5.1867 7.16777 4.96793 7.09652 4.80029 6.95405C4.63265 6.81158 4.52997 6.60964 4.51506 6.39418L4.33198 3.80798C4.33165 3.8037 4.33049 3.79952 4.32246 3.7829C4.31052 3.75648 4.28457 3.73967 4.25625 3.73817ZM6.3344 1.24947C8.35544 1.30664 10.0506 2.75888 10.3748 4.71095L10.3794 4.76559L10.3783 4.86078C10.3669 5.00116 10.3104 5.13468 10.2164 5.24194C10.0984 5.37665 9.93026 5.45976 9.74684 5.47302L6.61281 5.67737C6.21108 5.70007 5.86586 5.4015 5.83974 5.00931L5.63023 1.9324L5.63261 1.86346L5.64303 1.78578C5.67097 1.64804 5.74274 1.52221 5.84842 1.4265C5.98113 1.30631 6.15726 1.24266 6.3344 1.24947ZM6.32887 1.93234L6.5363 4.96434C6.53752 4.98276 6.55371 4.99676 6.56946 4.99589L9.68055 4.79239L9.66508 4.7075C9.3568 3.17322 8.02696 2.03393 6.43143 1.9372L6.32887 1.93234Z" fill="#EA7C69"/>
</g>
<defs>
<clipPath id="clip0_502_6511">
<rect width="11.3185" height="11.3185" fill="white" transform="translate(0.00402832 0.305768)"/>
</clipPath>
</defs>
</svg>
