<svg width="12" height="12" viewBox="0 0 12 12" fill="none" xmlns="http://www.w3.org/2000/svg">
<g clip-path="url(#clip0_502_6501)">
<path d="M6.58353 1.48319L6.66951 1.56337L7.00848 1.90233C7.12491 2.01821 7.27763 2.08966 7.44009 2.10571L7.51023 2.10917H7.99504C8.75141 2.10917 9.36989 2.70064 9.4131 3.44619L9.41551 3.52964V4.01398C9.41551 4.17894 9.4724 4.33754 9.57501 4.46363L9.62176 4.51561L9.96075 4.8546C10.4944 5.38582 10.5182 6.23532 10.0293 6.79515L9.96556 6.86357L9.62206 7.20707C9.50652 7.32288 9.43504 7.47572 9.41897 7.63801L9.41551 7.70806V8.19334C9.41551 8.94967 8.82408 9.56775 8.0785 9.61093L7.99504 9.61334H7.51023C7.34586 9.61334 7.18706 9.67047 7.06089 9.77337L7.0089 9.82024L6.67036 10.1583C6.13972 10.6926 5.2896 10.7163 4.72956 10.2272L4.65687 10.1591L4.31867 9.82095C4.20153 9.70463 4.04852 9.63292 3.88652 9.61681L3.81662 9.61334H3.33134C2.5753 9.61334 1.95695 9.02218 1.91375 8.27678L1.91134 8.19334V7.70806C1.91134 7.54395 1.85413 7.385 1.75129 7.25907L1.70445 7.2072L1.36625 6.86852C0.832118 6.33741 0.808426 5.48728 1.29749 4.92779L1.36129 4.85941L1.70373 4.5165C1.8202 4.39921 1.8918 4.2465 1.90788 4.0841L1.91134 4.01398V3.52964L1.91375 3.4462C1.95536 2.72834 2.53032 2.1532 3.24793 2.11158L3.33134 2.10917H3.81662C3.98097 2.10917 4.13979 2.05216 4.26573 1.94974L4.31761 1.9031L4.6563 1.56393C5.1875 1.03032 6.03753 1.00683 6.58353 1.48319ZM5.21135 2.01427L5.15725 2.0634L4.81711 2.40402C4.57317 2.64623 4.25053 2.79105 3.90992 2.8135L3.81662 2.81658H3.33134C2.95992 2.81658 2.65446 3.1015 2.62166 3.46476L2.61875 3.52964V4.01398C2.61875 4.35786 2.49396 4.68852 2.26886 4.94699L2.20501 5.01565L1.86207 5.35906C1.60183 5.62048 1.58668 6.03345 1.81666 6.3136L1.86592 6.36778L2.20513 6.70746C2.44772 6.95063 2.59312 7.27383 2.61566 7.6147L2.61875 7.70806V8.19334C2.61875 8.56498 2.90346 8.87025 3.2665 8.90302L3.33134 8.90594H3.81662C4.15985 8.90594 4.4908 9.03087 4.74933 9.25599L4.81799 9.31985L5.15911 9.66097C5.42237 9.92275 5.83545 9.938 6.11536 9.70802L6.16948 9.65876L6.50945 9.31926C6.75314 9.07672 7.07592 8.93153 7.41685 8.90902L7.51023 8.90594H7.99504C8.36699 8.90594 8.67241 8.62136 8.70519 8.2582L8.70811 8.19334V7.70806C8.70811 7.36433 8.83298 7.03279 9.05778 6.77546L9.12155 6.70716L9.46464 6.36407C9.72488 6.10235 9.73995 5.68959 9.5103 5.40954L9.4611 5.35538L9.12066 5.01493C8.8783 4.77085 8.73361 4.44854 8.71118 4.10743L8.70811 4.01398V3.52964C8.70811 3.15782 8.42323 2.85229 8.05993 2.81949L7.99504 2.81658H7.51023C7.16635 2.81658 6.83526 2.69189 6.57734 2.46695L6.50886 2.40313L6.18442 2.07783L6.16563 2.06037C5.90423 1.80016 5.49117 1.78492 5.21135 2.01427ZM7.1237 6.82456C7.15672 6.85757 7.18501 6.8953 7.20388 6.93774C7.21802 6.98018 7.22746 7.02735 7.22746 7.07451C7.22746 7.12214 7.21802 7.16411 7.20388 7.20655C7.18501 7.249 7.15672 7.29144 7.1237 7.32446C7.05768 7.39048 6.96807 7.42821 6.87375 7.42821C6.77943 7.42821 6.68983 7.39048 6.6238 7.32446C6.59079 7.29144 6.56721 7.249 6.54835 7.20655C6.52948 7.16411 6.52005 7.12214 6.52005 7.07451C6.52005 7.02735 6.52948 6.98018 6.54835 6.93774C6.56721 6.8953 6.59079 6.85757 6.6238 6.82456C6.75585 6.69251 6.99165 6.69251 7.1237 6.82456ZM7.12542 4.39898C7.25099 4.52456 7.2624 4.72106 7.15966 4.85953L7.12542 4.8992L4.70137 7.32324C4.56324 7.46137 4.33928 7.46137 4.20115 7.32324C4.07558 7.19767 4.06417 7.00117 4.16691 6.8627L4.20115 6.82303L6.6252 4.39898C6.76333 4.26085 6.98729 4.26085 7.12542 4.39898ZM4.69961 4.4007C4.76563 4.46625 4.80336 4.55633 4.80336 4.65065C4.80336 4.69781 4.79865 4.73978 4.77978 4.7827C4.76092 4.82514 4.73262 4.86287 4.69961 4.9006C4.6666 4.93361 4.62887 4.95672 4.58642 4.97558C4.54398 4.99445 4.49682 5.00435 4.44966 5.00435C4.4025 5.00435 4.36005 4.99445 4.31761 4.97558C4.27516 4.95672 4.23272 4.93361 4.19971 4.9006C4.16669 4.86287 4.14311 4.82514 4.12425 4.7827C4.10539 4.73978 4.09595 4.69781 4.09595 4.65065C4.09595 4.60301 4.10539 4.55633 4.12425 4.51388C4.14311 4.47144 4.16669 4.42899 4.19971 4.4007C4.33647 4.26817 4.56756 4.26817 4.69961 4.4007Z" fill="#EA7C69"/>
</g>
<defs>
<clipPath id="clip0_502_6501">
<rect width="11.3185" height="11.3185" fill="white" transform="translate(0.00402832 0.202084)"/>
</clipPath>
</defs>
</svg>
