<svg width="12" height="12" viewBox="0 0 12 12" fill="none" xmlns="http://www.w3.org/2000/svg">
<path d="M4.59293 1.41338C5.19187 0.937533 6.03132 0.918669 6.64866 1.35679L6.72458 1.41338L9.59618 3.71057C9.91216 3.95533 10.106 4.31894 10.139 4.71462L10.1437 4.80941V8.63365C10.1437 9.61931 9.3651 10.421 8.38935 10.4729H7.45085C7.00236 10.4639 6.63969 10.115 6.60668 9.67637L6.60197 9.60987V8.26155C6.60197 8.11489 6.49303 7.99274 6.3473 7.96869L6.30486 7.96397H5.0452C4.89476 7.96869 4.77214 8.07716 4.75328 8.21864L4.74856 8.26155V9.60563C4.74856 9.63345 4.74337 9.66647 4.73913 9.69005L4.73441 9.69995L4.72922 9.73249C4.6731 10.1338 4.34298 10.4399 3.93268 10.4687L3.87137 10.4729H3.0272C2.04155 10.4729 1.2351 9.69995 1.18323 8.72797V4.80941C1.18747 4.40807 1.36244 4.0355 1.65483 3.77612L4.59293 1.41338ZM6.31429 1.92743C5.95587 1.63975 5.44653 1.62608 5.06925 1.87556L4.99804 1.92743L2.13068 4.23877C1.96609 4.36091 1.86705 4.54484 1.84347 4.7382L1.83829 4.81365V8.63365C1.83829 9.26089 2.32876 9.77494 2.95175 9.81266H3.87137C3.97513 9.81266 4.06473 9.74239 4.07841 9.64336L4.08831 9.55847L4.09303 9.53442V8.26155C4.09303 7.75694 4.47974 7.34664 4.97493 7.30844H6.30486C6.809 7.30844 7.2193 7.69563 7.2575 8.19081V9.60987C7.2575 9.70891 7.32824 9.79427 7.42256 9.81266H8.29927C8.93122 9.81266 9.44527 9.32738 9.483 8.70911L9.48819 8.63365V4.81365C9.483 4.61133 9.39858 4.42222 9.25238 4.28121L9.19108 4.22886L6.31429 1.92743Z" fill="white"/>
</svg>
