<svg width="27" height="28" viewBox="0 0 27 28" fill="none" xmlns="http://www.w3.org/2000/svg">
<rect opacity="0.26" x="0.458374" y="0.750275" width="26.4099" height="26.4099" rx="5.65926" fill="#EB966A"/>
<path d="M19.1654 6.09514H8.16125C6.86119 6.09514 5.80322 7.15311 5.80322 8.45316V10.6784C5.80322 11.506 6.10348 12.2582 6.58923 12.8367V20.2433C6.58923 20.4517 6.67204 20.6517 6.81945 20.7991C6.96685 20.9465 7.16678 21.0293 7.37524 21.0293H13.6633C13.8718 21.0293 14.0717 20.9465 14.2191 20.7991C14.3665 20.6517 14.4493 20.4517 14.4493 20.2433V16.3132H17.5933V20.2433C17.5933 20.4517 17.6762 20.6517 17.8236 20.7991C17.971 20.9465 18.1709 21.0293 18.3793 21.0293H19.9514C20.1598 21.0293 20.3598 20.9465 20.5072 20.7991C20.6546 20.6517 20.7374 20.4517 20.7374 20.2433V12.8359C21.2231 12.2582 21.5234 11.506 21.5234 10.6776V8.45316C21.5234 7.15311 20.4654 6.09514 19.1654 6.09514ZM19.9514 8.45316V10.6784C19.9514 11.5744 19.284 12.3384 18.465 12.3816L18.3793 12.3832C17.5124 12.3832 16.8073 11.6782 16.8073 10.8112V7.66715H19.1654C19.5992 7.66715 19.9514 8.02007 19.9514 8.45316ZM12.0913 10.8112V7.66715H15.2353V10.8112C15.2353 11.6782 14.5303 12.3832 13.6633 12.3832C12.7963 12.3832 12.0913 11.6782 12.0913 10.8112ZM7.37524 8.45316C7.37524 8.02007 7.72737 7.66715 8.16125 7.66715H10.5193V10.8112C10.5193 11.6782 9.81422 12.3832 8.94725 12.3832L8.86158 12.3808C8.04256 12.3384 7.37524 11.5744 7.37524 10.6784V8.45316ZM12.0913 17.0992H8.94725V14.7412H12.0913V17.0992Z" fill="url(#paint0_linear_502_6545)"/>
<defs>
<linearGradient id="paint0_linear_502_6545" x1="13.6633" y1="6.09514" x2="13.6633" y2="21.0293" gradientUnits="userSpaceOnUse">
<stop stop-color="#EA9769"/>
<stop offset="1" stop-color="#EA6969"/>
</linearGradient>
</defs>
</svg>
