<svg width="12" height="12" viewBox="0 0 12 12" fill="none" xmlns="http://www.w3.org/2000/svg">
<g clip-path="url(#clip0_502_6521)">
<path d="M7.70127 1.71016C8.41526 1.7182 9.09482 2.02045 9.58169 2.54653C10.0686 3.07261 10.3202 3.7766 10.2787 4.47328L10.2781 7.41467C10.3202 8.13261 10.0686 8.83661 9.58169 9.36268C9.09482 9.88876 8.41526 10.191 7.69728 10.199H3.42424C1.92947 10.199 0.851074 8.99103 0.851074 7.43593V4.47328C0.851074 2.91818 1.92947 1.71016 3.42424 1.71016H7.70127ZM7.69329 2.43095H3.42424C2.34266 2.43095 1.56671 3.3002 1.56671 4.47328V7.43593C1.56671 8.60901 2.34266 9.47826 3.42424 9.47826H7.69329C8.21155 9.47244 8.70482 9.25305 9.05822 8.87119C9.41162 8.48932 9.59431 7.97832 9.56311 7.43593L9.56373 4.45202C9.59431 3.93089 9.41162 3.41989 9.05822 3.03802C8.70482 2.65616 8.21155 2.43677 7.69329 2.43095ZM8.40808 4.36924C8.52035 4.51051 8.50993 4.7108 8.39119 4.8395L8.35234 4.87583L6.41546 6.43735C5.94504 6.80667 5.29505 6.82513 4.80455 6.49107L4.72848 6.4354L2.77865 4.87677C2.62385 4.75303 2.59796 4.52633 2.7208 4.37042C2.83248 4.22868 3.02864 4.19423 3.17968 4.28211L3.22351 4.31215L5.17089 5.86883C5.38922 6.04024 5.68854 6.05343 5.91648 5.91066L5.9719 5.87172L7.90514 4.31309C8.05942 4.18871 8.28459 4.21385 8.40808 4.36924Z" fill="#EA7C69"/>
</g>
<defs>
<clipPath id="clip0_502_6521">
<rect width="11.3185" height="11.3185" fill="white" transform="translate(0.00402832 0.409451)"/>
</clipPath>
</defs>
</svg>
