<svg width="12" height="12" viewBox="0 0 12 12" fill="none" xmlns="http://www.w3.org/2000/svg">
<path d="M6.89323 9.79932C7.0331 9.91323 7.05527 10.1203 6.94274 10.2619C6.85955 10.3666 6.76343 10.4603 6.66156 10.5371C6.31841 10.8064 5.88213 10.9285 5.44887 10.8769C5.01521 10.8252 4.61964 10.6037 4.34969 10.2607C4.23783 10.1186 4.26097 9.91158 4.40137 9.79834C4.54178 9.68511 4.74627 9.70853 4.85813 9.85066C5.02094 10.0575 5.26088 10.1919 5.52484 10.2233C5.78918 10.2548 6.05509 10.1804 6.26816 10.0133C6.33099 9.96585 6.38746 9.9108 6.43622 9.84944C6.54875 9.70785 6.75336 9.68542 6.89323 9.79932ZM2.43381 4.75746L2.43962 4.47646C2.44377 4.35627 2.45019 4.2447 2.45962 4.13551C2.60096 2.60921 4.05779 1.45634 5.6467 1.45634H5.68034C7.26838 1.45634 8.72564 2.60841 8.8718 4.13759C8.88019 4.2348 8.88379 4.32114 8.88488 4.44258L8.8853 4.81409C8.88565 4.84793 8.88623 4.87769 8.88709 4.90544L8.89145 4.99799L8.91247 5.08623C8.97882 5.332 9.09544 5.56178 9.25516 5.76125L9.32622 5.84484L9.35532 5.8822C9.54688 6.16847 9.6563 6.50158 9.67194 6.86034L9.67148 7.05054C9.65811 7.47542 9.50212 7.88578 9.21629 8.22773C8.83773 8.62949 8.32474 8.87908 7.77955 8.92926C6.37165 9.08214 4.95118 9.08214 3.5472 8.92966C2.99825 8.87686 2.48678 8.628 2.09167 8.21082C1.8003 7.85561 1.64543 7.40837 1.65509 6.9564L1.65549 6.84404C1.67232 6.5004 1.78107 6.1676 1.97034 5.88009L2.00202 5.83934C2.22306 5.597 2.37419 5.30042 2.43976 4.98067L2.43266 5.00939L2.43381 4.75746ZM5.68034 2.1144H5.6467C4.37418 2.1144 3.21475 3.03191 3.10705 4.19485C3.10154 4.25875 3.09714 4.32468 3.09371 4.39406L3.08613 4.61402L3.08306 5.04755L3.07627 5.11443C2.98668 5.55129 2.78052 5.95589 2.47964 6.28575L2.50287 6.25882L2.46132 6.32759C2.38347 6.46785 2.33325 6.62018 2.31341 6.7705L2.30517 6.86034L2.3051 6.96347C2.29873 7.2638 2.40021 7.55685 2.57603 7.77257C2.84726 8.05809 3.21418 8.23661 3.61261 8.27496C4.97442 8.42284 6.34841 8.42284 7.71542 8.27444C8.10955 8.23814 8.47621 8.05974 8.73269 7.78842C8.92678 7.55562 9.02936 7.26164 9.02186 6.95223L9.02225 6.87515C9.01229 6.65275 8.94144 6.43708 8.81709 6.25124L8.82428 6.2632L8.75926 6.18694C8.53506 5.91022 8.37219 5.58926 8.28151 5.2452L8.25091 5.11514L8.24483 5.07144C8.24024 5.00759 8.23757 4.95085 8.23615 4.88262L8.23487 4.45599C8.234 4.34749 8.23106 4.27446 8.22446 4.19791C8.113 3.03186 6.95249 2.1144 5.68034 2.1144Z" fill="#EA7C69"/>
</svg>
