<svg width="12" height="12" viewBox="0 0 12 12" fill="none" xmlns="http://www.w3.org/2000/svg">
<path d="M5.95391 1.56003C6.28828 1.55989 6.60848 1.69237 6.84155 1.92727C7.07462 2.16218 7.20072 2.47951 7.19057 2.77566L7.19457 2.84532C7.20271 2.91391 7.22551 2.98011 7.26246 3.04112C7.33448 3.16144 7.45238 3.24875 7.59018 3.28381C7.72797 3.31886 7.87434 3.29878 8.01295 3.21932L8.09021 3.18022C8.67027 2.91305 9.36597 3.12537 9.68772 3.67248L9.97689 4.16411C9.98451 4.17707 9.99123 4.19046 9.99702 4.20419L10.0239 4.25686C10.2825 4.79768 10.0985 5.44099 9.60711 5.76782L9.48577 5.84252C9.42234 5.88585 9.36945 5.94245 9.32968 6.01046C9.25785 6.13125 9.23814 6.27511 9.2749 6.41018C9.31166 6.54526 9.40187 6.6604 9.53871 6.73791L9.61745 6.78734C9.85529 6.95034 10.0271 7.19058 10.102 7.46593C10.1866 7.77659 10.1413 8.10747 9.97377 8.38907L9.66269 8.89679L9.6158 8.96841C9.25029 9.48335 8.54064 9.64069 7.99907 9.33441L7.93489 9.30201C7.86793 9.27268 7.79568 9.25656 7.72991 9.25475C7.58684 9.25408 7.44943 9.30946 7.34827 9.40858C7.2471 9.5077 7.19057 9.64232 7.19094 9.79887L7.18711 9.87981C7.13474 10.5065 6.59924 10.9921 5.95405 10.9921H5.37146C4.68816 10.9921 4.13424 10.4494 4.13494 9.80149L4.13093 9.73183C4.12279 9.66324 4.1 9.59704 4.06117 9.53286C3.99074 9.41224 3.87404 9.32418 3.73702 9.28825C3.60001 9.25233 3.45402 9.27152 3.31271 9.35156L3.22875 9.39264C2.96322 9.50963 2.66372 9.53125 2.38308 9.4531C2.06645 9.36493 1.79874 9.15678 1.64251 8.88046L1.34194 8.37198L1.30193 8.29664C1.02822 7.73057 1.24277 7.05009 1.7873 6.74176L1.83696 6.71129C1.98243 6.61265 2.06966 6.45001 2.06966 6.27608C2.06966 6.08694 1.96667 5.91218 1.78652 5.8099L1.71342 5.76395C1.18782 5.40585 1.02724 4.71058 1.35283 4.15713L1.65904 3.66417C1.99959 3.08509 2.75428 2.88532 3.33473 3.21145L3.39757 3.24427C3.46162 3.27307 3.5312 3.28836 3.5982 3.28906C3.89361 3.28909 4.13429 3.05668 4.13877 2.75876L4.14278 2.66726C4.16697 2.384 4.29243 2.1178 4.49752 1.91589C4.72892 1.68809 5.04343 1.56003 5.37146 1.56003H5.95391ZM5.95405 2.24279H5.37146C5.22883 2.24279 5.09208 2.29847 4.99147 2.39751C4.9023 2.4853 4.84775 2.60105 4.83818 2.70914L4.83184 2.85293C4.78305 3.47987 4.24839 3.97189 3.59454 3.97181C3.426 3.97009 3.25984 3.93358 3.0904 3.85686L2.99968 3.80999C2.74119 3.66487 2.41159 3.75212 2.25863 4.01202L1.95243 4.50499C1.81212 4.74357 1.88229 5.04738 2.09955 5.19575L2.2225 5.27203C2.56112 5.49635 2.76654 5.87188 2.76654 6.27608C2.76654 6.67437 2.56685 7.0467 2.22167 7.28042L2.14819 7.32568C1.90633 7.46277 1.81299 7.7588 1.9254 7.99193L1.95195 8.04219L2.24871 8.54374C2.31839 8.66694 2.43531 8.75785 2.5736 8.79635C2.69616 8.83048 2.82697 8.82104 2.92902 8.77644L2.9803 8.75184C3.26333 8.59004 3.60062 8.5457 3.91717 8.6287C4.23373 8.7117 4.50334 8.91514 4.66325 9.18911C4.74928 9.33112 4.80372 9.4892 4.82479 9.67091L4.83429 9.83766C4.86363 10.1029 5.09293 10.3094 5.37146 10.3094H5.95405C6.23574 10.3094 6.46974 10.0972 6.49172 9.83723L6.49439 9.78579C6.4928 9.4634 6.62282 9.15376 6.8555 8.92579C7.08818 8.69783 7.40422 8.57044 7.74092 8.57212C7.90612 8.57645 8.06871 8.61272 8.2349 8.68599L8.38392 8.76056C8.6178 8.86115 8.89523 8.78775 9.03584 8.5901L9.07002 8.53775L9.37392 8.04158C9.44574 7.92079 9.46546 7.77693 9.42869 7.64185C9.39611 7.52213 9.3214 7.41767 9.23081 7.35518L9.10241 7.27565C8.85688 7.11306 8.67842 6.86853 8.60155 6.58611C8.51699 6.27544 8.56234 5.94457 8.72625 5.66894C8.81598 5.51545 8.9393 5.38348 9.10008 5.27407L9.17588 5.22729C9.41736 5.08891 9.51062 4.7929 9.39902 4.55888L9.36568 4.49591L9.3597 4.48268L9.08391 4.01336C8.95346 3.79155 8.68202 3.6957 8.4517 3.77143L8.39936 3.79197L8.35071 3.81626C8.06859 3.97908 7.73196 4.02528 7.41504 3.94466C7.09812 3.86403 6.82695 3.66322 6.66225 3.38804C6.57623 3.24603 6.52179 3.08795 6.50072 2.90624L6.49453 2.78737C6.49872 2.64436 6.44365 2.50577 6.34186 2.40318C6.24007 2.30059 6.10023 2.24279 5.95405 2.24279ZM5.66488 4.73479C6.53371 4.73479 7.23804 5.42485 7.23804 6.27608C7.23804 7.12731 6.53371 7.81736 5.66488 7.81736C4.79605 7.81736 4.09172 7.12731 4.09172 6.27608C4.09172 5.42485 4.79605 4.73479 5.66488 4.73479ZM5.66488 5.41755C5.18092 5.41755 4.7886 5.80192 4.7886 6.27608C4.7886 6.75023 5.18092 7.1346 5.66488 7.1346C6.14884 7.1346 6.54116 6.75023 6.54116 6.27608C6.54116 5.80192 6.14884 5.41755 5.66488 5.41755Z" fill="#EA7C69"/>
</svg>
